  <svg xmlns="http://www.w3.org/2000/svg" width="20" height="20" viewBox="0 0 20 20" fill="none">
  <path d="M6.78299 2.826C6.90789 2.57768 7.09932 2.36896 7.33593 2.2231C7.57255 2.07725 7.84504 2.00001 8.12299 2H11.887C12.1657 2.00001 12.4389 2.07767 12.6759 2.22428C12.913 2.37088 13.1045 2.58063 13.229 2.83L13.814 4H15.504C16.167 4 16.8029 4.26339 17.2718 4.73223C17.7406 5.20107 18.004 5.83696 18.004 6.5V8.695C17.712 8.44261 17.3718 8.2521 17.004 8.135V6.5C17.004 6.10218 16.846 5.72064 16.5647 5.43934C16.2833 5.15804 15.9018 5 15.504 5H13.504C13.4114 4.99981 13.3206 4.97391 13.2419 4.92517C13.1631 4.87644 13.0995 4.8068 13.058 4.724L12.335 3.277C12.2935 3.19371 12.2296 3.12366 12.1504 3.07473C12.0713 3.02579 11.98 2.99991 11.887 3H8.12299C8.03032 2.99991 7.93944 3.02558 7.86051 3.07414C7.78158 3.1227 7.71769 3.19224 7.67599 3.275L6.94799 4.724C6.90636 4.80661 6.84264 4.87605 6.7639 4.9246C6.68516 4.97315 6.59449 4.9989 6.50199 4.999H4.50399C4.10617 4.999 3.72464 5.15704 3.44333 5.43834C3.16203 5.71964 3.00399 6.10118 3.00399 6.499V14.5C3.00399 14.8978 3.16203 15.2794 3.44333 15.5607C3.72464 15.842 4.10617 16 4.50399 16H8.21999L8.05699 16.653C8.02852 16.7668 8.01044 16.8829 8.00299 17H4.50299C3.83995 17 3.20406 16.7366 2.73522 16.2678C2.26638 15.7989 2.00299 15.163 2.00299 14.5V6.5C2.00299 5.83696 2.26638 5.20107 2.73522 4.73223C3.20406 4.26339 3.83995 4 4.50299 4H6.19299L6.78299 2.826ZM13.887 9.056C13.6527 8.10833 13.0801 7.27898 12.277 6.72404C11.4739 6.16909 10.4956 5.92682 9.52635 6.04284C8.55707 6.15885 7.66362 6.62514 7.01416 7.35395C6.36469 8.08275 6.00401 9.02381 5.99999 10C5.99999 11.89 7.30999 13.473 9.07199 13.892C9.13581 13.8149 9.20322 13.7408 9.27399 13.67L9.94399 13C9.35557 12.9889 8.7834 12.805 8.29872 12.4711C7.81405 12.1373 7.43828 11.6682 7.21819 11.1224C6.9981 10.5766 6.94342 9.97808 7.06096 9.40141C7.17849 8.82473 7.46305 8.29537 7.8792 7.87921C8.29536 7.46306 8.82472 7.1785 9.4014 7.06097C9.97807 6.94343 10.5766 6.99811 11.1224 7.2182C11.6682 7.43829 12.1373 7.81406 12.4711 8.29873C12.805 8.78341 12.9889 9.35558 13 9.944L13.887 9.056ZM14.809 9.548L9.97899 14.378C9.69785 14.6595 9.49843 15.012 9.40199 15.398L9.02699 16.896C8.99001 17.045 8.99219 17.201 9.03333 17.3489C9.07446 17.4968 9.15315 17.6315 9.26174 17.74C9.37034 17.8485 9.50515 17.9271 9.65309 17.9681C9.80102 18.0091 9.95704 18.0111 10.106 17.974L11.604 17.6C11.9901 17.5034 12.3427 17.3036 12.624 17.022L17.454 12.192C17.8001 11.8403 17.9932 11.3661 17.9912 10.8726C17.9892 10.3792 17.7923 9.90656 17.4433 9.5577C17.0943 9.20885 16.6216 9.01207 16.1281 9.01026C15.6347 9.00844 15.1605 9.20173 14.809 9.548Z" fill="#1D2939"/>
</svg>