<svg width="46" height="47" viewBox="0 0 46 47" fill="none" xmlns="http://www.w3.org/2000/svg">
<rect x="3" y="3.5" width="40" height="40" rx="20" fill="#F2F4F7"/>
<rect x="3" y="3.5" width="40" height="40" rx="20" stroke="#F9FAFB" stroke-width="6"/>
<path d="M19.6665 26.8333L22.9998 23.5M22.9998 23.5L26.3332 26.8333M22.9998 23.5V31M29.6665 27.4524C30.6844 26.6117 31.3332 25.3399 31.3332 23.9167C31.3332 21.3854 29.2811 19.3333 26.7498 19.3333C26.5677 19.3333 26.3974 19.2383 26.3049 19.0814C25.2182 17.2374 23.2119 16 20.9165 16C17.4647 16 14.6665 18.7982 14.6665 22.25C14.6665 23.9718 15.3627 25.5309 16.489 26.6613" stroke="#475467" stroke-width="1.66667" stroke-linecap="round" stroke-linejoin="round"/>
</svg>
